<svg id="Layer_1" data-name="Layer 1" xmlns="http://www.w3.org/2000/svg" viewBox="0 0 511.73 31.13">
  <defs>
    <style>
      .cls-1, .cls-2, .cls-3, .cls-4, .cls-5, .cls-6, .cls-7 {
        fill: hsl(0, 0%, 15%);
      }

      .cls-2, .cls-5 {
        opacity: 0.75;
      }

      .cls-3, .cls-6 {
        opacity: 0.25;
      }

      .cls-4, .cls-7 {
        opacity: 0.6;
      }
    </style>
  </defs>
  <title>edge</title>
  <g>
    <path class="cls-1" d="M134.08,19.94c2.94,1.64,5.94.93,8.94.24a4.23,4.23,0,0,0,4.42.41c1.16.53,3.74-1.58,3.39,1.78.71.87.9-.33,1.38-.35.66-.53,1.66-1.49,2.09-1.2,5.06,3.43,10.89-1.59,15.92,1.52,2.9,1.08,5.56,3.12,9,1.46.95-.46,2,.82,3,1.35,1.11.36,1.18-.34,1.15-1.16,0-.22.08-.42.13-.63a1.83,1.83,0,0,1,1-.87,7.11,7.11,0,0,1,4,.71,5.8,5.8,0,0,1,1.17.71c2.43,2.23,4.53.3,6.7-.56.75-.43,1.51-.84,2.29-1.21,1.19-.5,2.16-1.49,3.52-1.63,2.75.17,5.8-1.84,8.2,1.27.55.71,1.48-.23,2.05-.79,2.74-2.66,5.62-2.63,8.29-.1,1.49,1.42,2.19.42,3.12-.44a3.11,3.11,0,0,1,1.93,0c.89.34,1.65,1.21,2.76.65.54-.32,1-.69,1.55-1.05a4.42,4.42,0,0,1,3.84-.68c2.35,2,4.76.94,7.18.13a46.37,46.37,0,0,0,10.66-.43c1.12-.18,2.2-.86,3.36-.19,3-1.07,5.91.41,8.86.05a11,11,0,0,0,5.78.48,5.71,5.71,0,0,1,1.3-.16,13.58,13.58,0,0,0,4.54-.19c3.84.46,7.69.68,11.53,1.06,3.81,1.6,7.95.63,11.91,1.6,3.8.92,7.89.65,11.85.9,2.29,1.11,4.69-.81,7,.23a5.15,5.15,0,0,0,2.95.65,7.86,7.86,0,0,0,2.46-.34,11.72,11.72,0,0,1,3.88-.79c3.14,1.36,4.16-2.73,6.8-2.65,2.74-.1,5.29,1.32,8.06,1a20.65,20.65,0,0,1,8.53.55c4.59,3.3,9.29.09,13.93.23a5.12,5.12,0,0,1,1.4-.18,3.49,3.49,0,0,1,1.32.47c1.64,3,3.72,2.12,5.86.64a2.69,2.69,0,0,1,1.93.3c1.26,1.92,3.05.94,4.69.78.94-.8,2.17-1.54,3.09-.51,1.77,2,2.85.37,4.14-.47a4,4,0,0,1,2-.2,30.7,30.7,0,0,0,14.62,1,22,22,0,0,1,3.18,1,3.9,3.9,0,0,0,4.12.05c1.61-.75,3.45-1,4.87-2.17a5.76,5.76,0,0,1,2.61-1.06c3.56,0,7.11-.21,10.68-.23l0,0c.95.8,2.42.84,3.09,2.07,1.87,1.41,3-.25,4.41-1,1.44-.59,3-.38,4.47-.58a7.92,7.92,0,0,0,5-.63,5.45,5.45,0,0,1,1.34,0,7.08,7.08,0,0,0,5.26-.84,5.17,5.17,0,0,1,6.45.65c2.94.38,5.29-2.32,8.29-1.6a.36.36,0,0,1,.57.22c1,1.5,1.94,3.24,4,1.11a10,10,0,0,1,3.4-.16,9.86,9.86,0,0,1,1.33.16c2.28.64,4.62.46,7,.51a35.91,35.91,0,0,0,5.38-2.1,2.72,2.72,0,0,1,1.32.2c2.35,2.37,4.79,4,7.76.87a2.28,2.28,0,0,1,1.67-1,5,5,0,0,0,3.77-.13,5.14,5.14,0,0,1,2.42-.61c1.85-1.32,4-.43,6-.94V40c-.56.79-1.11,1.61-2.24,1.64-2.56-.32-5.15-.4-7.71-.64a9.6,9.6,0,0,1-1.31-.31,5.77,5.77,0,0,0-5.46.53,3.82,3.82,0,0,1-3.07-.51c-.76-1-1.74-.18-2.62-.28a27.44,27.44,0,0,1-4.41-.74c-2.06-1.36-4.12.15-6.18,0a4.26,4.26,0,0,0-4.17,1.2l-.61.3A.94.94,0,0,1,472.9,41l.05-.16c-2.5-1.12-4.81,1.33-7.3.41h-.71a5,5,0,0,0-4.17-1.92,3.69,3.69,0,0,0-4-.52c-1,.36-1.76,1.12-2.83,1.22l-2,.18c-1.82-.82-3.42-1.69-1.19-4-2.39,2.6-5.48,2.87-8.72,2.56a5.88,5.88,0,0,1-1.3-.26c-1.44-.93-2.83-.44-4.21.2-3.19.42-6.81-2.17-9.56,1.36v0c-2.37.51-3.94-2.08-6.3-1.61-2.24-1-4.47-1.44-6.68.08-2.27.88-4.77.06-7.05.92-1,1-1.72-3-2.83-.15a16,16,0,0,1-3.3,2c-1.58-.22-3.19-1.42-4.76.07a8.49,8.49,0,0,1-7.53-.22c-1.72-1-3.44-1.91-5.53-1.2a10.18,10.18,0,0,1-1.35.18,20.55,20.55,0,0,1-2.08.08,10.71,10.71,0,0,1-3.47-.49,7.31,7.31,0,0,0-7-.37c-2.85,1.12-5.92,2.23-9,.46a3.47,3.47,0,0,0-2.8.21c-.82.61-1.31,1.52-2.1,2.16a2.32,2.32,0,0,1-1.27.2,9.35,9.35,0,0,1-1.83-.81c-4.18-2.3-8.69-.24-13-1-3-.09-6.12-1-8.92,1a6.37,6.37,0,0,1-3.32-.71c-1.1-.4-1.45-2.11-3-1.71a11.19,11.19,0,0,1-7,.73,5.91,5.91,0,0,1-1.32-.13c-3.7.47-7.39-1.36-11.1,0-1.88-.5-3.61.67-5.46.5a15.27,15.27,0,0,0-7,.43,2.78,2.78,0,0,1-2.9.23c-3.2-1.9-6.79-1-10.19-1.37a4.2,4.2,0,0,1-1.85.34,4.28,4.28,0,0,1-.88.27,10.21,10.21,0,0,1-2.62.62c-1.38.06-2.05-2-3.68-1.22-1.29-.18-2.58-.32-3.88-.41-2.23-1.23-4,.72-6,.94v.06c-2.61-1.85-5.3,1.58-7.91-.12l0,0a7.1,7.1,0,0,0-4.93-.34,4.24,4.24,0,0,1-1.33-.19c-2.23-1.62-4.45-3-6.72-.06a2.79,2.79,0,0,1-2,0c-3.2-2.06-6.74-2.31-10.4-1.92-6.37,1.17-12.85.3-19.25,1a10.57,10.57,0,0,0-6.49,1.31,10.12,10.12,0,0,1-4.85.87c-3.63-.73-7.35-3.19-10.79.5-3.54-.67-7.11-2.18-10.6.18-3.16.88-6.29-1.54-9.45-.07-1.16.23-2-.76-3-.92-2.07-.07-4.14-.26-6.1.63-.89.73-1.29,2.22-2.89,1.82-1.35-.4-2-1.55-2.87-2.52-1.59-1.16-3.08-.72-4.52.3a1.84,1.84,0,0,1-2.93-.5c-2.58,2.15-6.21.85-8.89,2.67-1.39,1.17-1-1.27-1.93-1-3.59-1.14-7.41,1.17-10.94-.77a18.05,18.05,0,0,0-5.81.54,8.51,8.51,0,0,0-3.06-.08,7,7,0,0,1-1.18.28c-.64.12-1.54.56-1.88.29-3.26-2.52-6.68.2-10-.43-1-.15-2.07-.21-3.1-.36l-2-.26c-2.11.55-4.1-.64-6.19-.39a44.62,44.62,0,0,1-8.41-.5,10.31,10.31,0,0,0-3.21.6,9.43,9.43,0,0,1-3.07.85,2.88,2.88,0,0,0-2.86.25c-1.12.2-1.78,1.82-3.22,1-1.92-3.13-4.44-.17-6.69-.6-3.72-.71-7.56-.8-11.35-1.15a3.91,3.91,0,0,1-2,.35,24.72,24.72,0,0,0-7,.6c-2.23,1.28-3.9-.72-5.86-1C31,40.19,28.5,45.14,25,42.33a3.88,3.88,0,0,0-3-1c-1.93-.11-3.34,1.42-5.18,1.6A3.51,3.51,0,0,1,14,42.06l.06,0c-2.93-.42-5.84,2.44-8.8.06C3.52,41.51,1.56,41.4.13,40V17.05c2.44-.47,11.51-.37,17,2.22,3.92.11,7.83.63,11.77.38C34.47,24,40.57,21.78,46.51,21c1-.11,1.81-.86,2.76-.06,6.47-2.46,13-1.72,19.75-1.43,2.68.11,6,.64,8.85-.13,1.94-.53,2.59,1.11,3.93,1.44,3.1,0,6.14,1.34,9.29.42l1-.29c1.52.36,2.43-1.82,4.06-1a1.22,1.22,0,0,0,.89-.22c3.72,1.28,7.59-.36,11.33.58,5.2,0,10.39-.13,15.59-.06,1.38,0,2.78,1.89,4.1-.14C130.06,20.09,132.05,19.59,134.08,19.94Z" transform="translate(-0.13 -14.28)"/>
    <path class="cls-2" d="M491.85,39.89l3,1c1.73-2.14,3.9-1.59,6.07-1h0c1.83,2.27,4.75,1,6.94,2.09,1.28.76,3.16.28,4,1.92v1c-5.53-1.67-11,1.21-16.61.25a10.92,10.92,0,0,1-5.32-1.93,1.42,1.42,0,0,1-.39-1.17C490,41.06,491.1,40.65,491.85,39.89Z" transform="translate(-0.13 -14.28)"/>
    <path class="cls-3" d="M.13,40c2.14-.28,4.05.62,6.05,1.1,1,1.44.12,2.15-1,2.76C3.48,44.29.88,45.13.13,45Z" transform="translate(-0.13 -14.28)"/>
    <path class="cls-3" d="M511.86,44l-4.09-1.11c-.25-1.7,1.41-1.24,2.1-1.86l2-1Z" transform="translate(-0.13 -14.28)"/>
    <path class="cls-4" d="M388.06,40.32c2.67.37,5.35,1.65,8,0,2.37-2.81,3.33,1.92,5.34,1a3,3,0,0,1,1.4.33,1,1,0,0,1,.38.8c0,.32-.05.47-.12.47C401.14,44.1,399,44,396.82,44l-45.64,0c-.48-2.53,1.3-2.19,2.8-2.19a.93.93,0,0,0,.95,0c.27-.18.55-.46.85-.49,6.29-.69,12.55-1.86,18.93-1.41a10.33,10.33,0,0,0,3.87.47c1.25.22,2.3-.91,3.57-.53a5.93,5.93,0,0,0,4.68.7C387.24,40.43,387.65,40.37,388.06,40.32Z" transform="translate(-0.13 -14.28)"/>
    <path class="cls-4" d="M234.21,41.83,190.09,43a1,1,0,0,1,.08-1.43,5.41,5.41,0,0,1,3.05-.91c1.83-.08,3.66.56,5.49,0,2-.15,4-.86,6.07-1a19.29,19.29,0,0,1,2.28-.06,17.58,17.58,0,0,0,5.82-.52c4.49-1.56,9,.08,13.55-.21,1.61.11,3.21.33,4.82.37C232.62,39.7,234.07,40,234.21,41.83Z" transform="translate(-0.13 -14.28)"/>
    <path class="cls-2" d="M441,37.91c4.17,0,8.12-2.16,12.36-1.56-3.1,1-3.1,1-1.39,3.8-3.19,3-6.77-.41-10.08.61C440.88,40,440.23,39.18,441,37.91Z" transform="translate(-0.13 -14.28)"/>
    <path class="cls-2" d="M339,40c4.7-.31,9.52-2.33,14,.94-1.1,1.21-2.66,1.62-4.08,2.3l-2.8.22c-1-.21-2-1-3.14-.58h-1c-1-.61-2.52-.45-3.1-1.82l0,.05c-.3-.28-.38-.54-.25-.77S338.89,40,339,40Z" transform="translate(-0.13 -14.28)"/>
    <path class="cls-4" d="M234.21,41.83l-3.09-2c-1.61-.35-3.28-.59-4.1-2.32-.05-.23-.09-.47-.14-.7,3.68-.94,7.24-1.29,10.14,1.91.84,1.29-.18,1.64-1,2.07Z" transform="translate(-0.13 -14.28)"/>
    <path class="cls-2" d="M339,40c0,.37-.07.74-.11,1.11-2.95.62-5.3,4.07-8.84,1.81a1.17,1.17,0,0,1,.08-2C332.68,36.71,336,40,339,40Z" transform="translate(-0.13 -14.28)"/>
    <path class="cls-2" d="M174.06,40.93c3.61-3.44,7.25-2.39,10.9-.07a1.06,1.06,0,0,1,1.31.09,1.35,1.35,0,0,1-.41,1.9c-3.81-1.77-7.91-.26-11.81-1.05-.33-.2-.44-.39-.32-.59S173.94,40.93,174.06,40.93Z" transform="translate(-0.13 -14.28)"/>
    <path class="cls-4" d="M277.93,38.76c4.72-1.58,9.87-.62,11.09,2.08-3-.16-6.15,2.37-8.9-.68C278.9,40.47,278.24,39.89,277.93,38.76Z" transform="translate(-0.13 -14.28)"/>
    <path class="cls-4" d="M305,38.8c1.54-3.29,3.81.07,5.79-.54,1.51-.46,3.42.42,5.15.7.22,1-.12,1.36-1.11,1.11-2,2.16-4.63.08-6.83,1-1.79,1-2.49-.06-3-1.52C305,39.27,305,39,305,38.8Z" transform="translate(-0.13 -14.28)"/>
    <path class="cls-2" d="M427,40.05c.43-3.23,2.39-3.85,5.22-3.12,1.55.4,3.13.69,4.7,1,1-.38,1.2.22,1.29,1a2.65,2.65,0,0,1-2.08,1.63,26.19,26.19,0,0,1-3.29-.33,12.16,12.16,0,0,0-3.94,1Z" transform="translate(-0.13 -14.28)"/>
    <path class="cls-2" d="M420.86,37.92c3.15-2.52,4,1.59,6.1,2.11-2.66,2.28-5.87,1.88-9,1.84-.42-1,.42-1.38,1-1.91C419.64,39.36,420.13,38.53,420.86,37.92Z" transform="translate(-0.13 -14.28)"/>
    <path class="cls-2" d="M142.85,40.09c2.77-.15,5.4-4.28,8.32-.29A1.41,1.41,0,0,1,150,41.05l-.82,0c-1,.73-2,1.8-3.46,1.05C142.24,42.48,142.07,42.36,142.85,40.09Z" transform="translate(-0.13 -14.28)"/>
    <path class="cls-2" d="M403.07,42.88a2.54,2.54,0,0,0-.25-.84c-.77-1.42,1-2,1.06-3.14,1.1-3,2,.47,3,.08,4.79-.87,4.79-.87,5,1.91C409.15,42.34,405.72,40.88,403.07,42.88Z" transform="translate(-0.13 -14.28)"/>
    <path class="cls-3" d="M435.67,40.06,437.9,39c.65-1.34,1.56-1.94,3-1.08H441c.29,1,.59,1.9.89,2.85-1.35,3.56-4,0-5.85,1.09A1.23,1.23,0,0,1,435.67,40.06Z" transform="translate(-0.13 -14.28)"/>
    <path class="cls-4" d="M260,40c1.4-2.47,3.34-3.37,6-2,.8.89,3.52.47,2,2.92Z" transform="translate(-0.13 -14.28)"/>
    <path class="cls-2" d="M76.06,40.07c.67-1.24,1.86-1.09,3-1.12a1.93,1.93,0,0,1,.19,2.4c-.53,4.3-3.22,1.76-5.15,1.62C73.47,41.14,75.17,40.88,76.06,40.07Z" transform="translate(-0.13 -14.28)"/>
    <path class="cls-2" d="M79.24,41.35c-.06-.8-.12-1.6-.19-2.4a10.86,10.86,0,0,0,9.11.1c1.1.73,2,1.52.92,2.93-1.74,1-3.06.73-4.68-.68C83,40.09,81,41.19,79.24,41.35Z" transform="translate(-0.13 -14.28)"/>
    <path class="cls-4" d="M298,39.08l7-.28a1.69,1.69,0,0,1-.13.63c-.29,1.41-1.18,1.11-2.1.75-1.55,3.78-3.68,2.2-5.8.61C296.53,39.76,297.41,39.5,298,39.08Z" transform="translate(-0.13 -14.28)"/>
    <path class="cls-3" d="M156.06,41c1.81-2.28,4.35-2,6.82-1.91,1.33,1.34.31,2-.74,2.73C159.74,44.29,158.14,40.89,156.06,41Z" transform="translate(-0.13 -14.28)"/>
    <path class="cls-2" d="M5.13,43.84l1-2.76c2.37,2.56,5.51-1.32,7.92.94C11.48,44.43,8.26,43.91,5.13,43.84Z" transform="translate(-0.13 -14.28)"/>
    <path class="cls-2" d="M174.06,40.93c0,.29,0,.58,0,.87l-8,1a5.73,5.73,0,0,1-1-1.82c.34-3.39,3-1.57,3.91-1.17A11,11,0,0,0,174.06,40.93Z" transform="translate(-0.13 -14.28)"/>
    <path class="cls-4" d="M316.93,38.8a14.87,14.87,0,0,0,7-.81,1.65,1.65,0,0,1,.51,1.39c-.48,1.32-1.17,2.31-2.83,1.76-1.29,1.5-2.45-.18-3.68-.16A2.31,2.31,0,0,1,316.93,38.8Z" transform="translate(-0.13 -14.28)"/>
    <path class="cls-2" d="M25.16,40.89c1.06.71,1.7,2.83,3.51,1,1.66-1.66,3.71-.8,5.62-.85a15.54,15.54,0,0,1-9.16,2.81A2.08,2.08,0,0,1,25.16,40.89Z" transform="translate(-0.13 -14.28)"/>
    <path class="cls-2" d="M411.93,40.89c-.42-3.92-3.89.16-5-1.91,2-2.81,4.69-.4,7-1,1.42-.33,1.47.62,1.5,1.59-.21.77-.92,1-1.49,1.35Z" transform="translate(-0.13 -14.28)"/>
    <path class="cls-4" d="M236,40.78c.34-.69.69-1.38,1-2.07l1.91.1c2.32-1.76,4.71-.48,7.08-.19a4.7,4.7,0,0,1,1,.18,1,1,0,0,1,.1,1.36c-1.66.77-3.57-.25-5.2.74Z" transform="translate(-0.13 -14.28)"/>
    <path class="cls-2" d="M17,42c1.62-.92,2.95-2.59,5.16-2,1,.32-2.46,2.32.71,1.86.16,0,.24.51.14.85-1.73,1.6-3.84,1.12-5.87,1.08A1.18,1.18,0,0,1,17,42Z" transform="translate(-0.13 -14.28)"/>
    <path class="cls-2" d="M465.65,41.2c2.37-1.19,4.72-3,7.3-.41C470.55,41.43,468.31,45.11,465.65,41.2Z" transform="translate(-0.13 -14.28)"/>
    <path class="cls-3" d="M460.89,39l3.49-1.28c.19,1.18.37,2.34.56,3.51-1.37,2-1.37,2-4.12-.93A.81.81,0,0,1,460.89,39Z" transform="translate(-0.13 -14.28)"/>
    <path class="cls-3" d="M453.89,40a3.12,3.12,0,0,1,2-2c1.58.11,3.42-.32,4,1.9C457.9,40.64,456,43.53,453.89,40Z" transform="translate(-0.13 -14.28)"/>
    <path class="cls-4" d="M40.15,42.07c2.13-1.5,4.26-3,7-1.29C46.9,42,45.9,42.37,45,42.87Z" transform="translate(-0.13 -14.28)"/>
    <path class="cls-4" d="M115,41c2,.72,4.1-3.71,6.1.06-.87,4-3.63-.92-4.94,1a1.7,1.7,0,0,1-2,.12C113.8,41.34,113.85,40.77,115,41Z" transform="translate(-0.13 -14.28)"/>
    <path class="cls-3" d="M298,39.08l-1,1.71c-1.75,1.72-3.4.89-5.05-.18C293.32,37.62,295.82,39,298,39.08Z" transform="translate(-0.13 -14.28)"/>
    <path class="cls-2" d="M478.8,42c-1.63.29-3.26.82-4.9,0-.3-.25-.4-.5-.31-.76s.19-.38.28-.38l0-.36c1.58-.39,2.9-2,4.76-1,1.19.35,2.54.28,3.42,1.38a1.3,1.3,0,0,1-.37,1.4A2.46,2.46,0,0,1,478.8,42Z" transform="translate(-0.13 -14.28)"/>
    <path class="cls-3" d="M252,40c2.63.32,5.32-3.27,7.91.12C257.31,40.16,254.64,42.34,252,40Z" transform="translate(-0.13 -14.28)"/>
    <path class="cls-3" d="M348.89,43.19c.67-2,2.3-2.28,4.08-2.3l1,.92L351.18,44C350,44.85,349.38,44.24,348.89,43.19Z" transform="translate(-0.13 -14.28)"/>
    <path class="cls-3" d="M321.64,41.14A4.06,4.06,0,0,0,324,39c1.65-.7,1.33,1.1,2,1.6a1,1,0,0,1-.11,1.12C324.08,44.52,322.75,43.62,321.64,41.14Z" transform="translate(-0.13 -14.28)"/>
    <path class="cls-2" d="M489.8,42.08c0,.4.09.8.13,1.2-1.41,1.5-3.6-.79-4.95,1a1.73,1.73,0,0,1-.71-1.75c.57-1.9,2.14-2,3.74-2A1.8,1.8,0,0,1,489.8,42.08Z" transform="translate(-0.13 -14.28)"/>
    <path class="cls-2" d="M459.88,39.87l-4-1.9c1.57.85,4.39-4.6,5,1,0,.43-.05.87-.07,1.3Z" transform="translate(-0.13 -14.28)"/>
    <path class="cls-3" d="M185.86,42.85l0-1.9c.19-2,1.52-1.77,2.88-1.51A2.56,2.56,0,0,1,190,42.08c0,.32,0,.64.05,1C188.64,43.91,187.29,42.49,185.86,42.85Z" transform="translate(-0.13 -14.28)"/>
    <path class="cls-3" d="M23,42.78c-.31-.9-3.7-.84-.85-2.72,1.06,0,2.18-.17,3,.83l0,3C24.07,44.19,23.8,43,23,42.78Z" transform="translate(-0.13 -14.28)"/>
    <path class="cls-3" d="M428.85,41.2c.69-2.1,2.32-2.36,4.2-2.12a2,2,0,0,1-.2,2.82C431.48,41.86,430,42.61,428.85,41.2Z" transform="translate(-0.13 -14.28)"/>
    <path class="cls-4" d="M478.8,42l3,.1c1.35.44,1.92,1.23,1.13,2.59C480.63,45.29,478.57,45.42,478.8,42Z" transform="translate(-0.13 -14.28)"/>
    <path class="cls-2" d="M247,39.52c0-.24,0-.48,0-.72,2.21-1.86,3.71-.76,5,1.19-1.28.54-2.5,1.29-4,1C247.38,40.68,246.77,40.39,247,39.52Z" transform="translate(-0.13 -14.28)"/>
    <path class="cls-3" d="M413.9,40.89l1-.92c3-2.55,3.71-2.4,4.89,1a1.81,1.81,0,0,0-1.84.9Z" transform="translate(-0.13 -14.28)"/>
    <path class="cls-3" d="M325.91,41.73a1.63,1.63,0,0,1,0-.79c.15-.56.69-.67,1.09-.95l3.15.9c0,.66-.05,1.32-.08,2C328.51,43.06,327,43.28,325.91,41.73Z" transform="translate(-0.13 -14.28)"/>
    <path class="cls-4" d="M89.08,42c-.31-1-.62-1.95-.92-2.93l6,2c-.29,1-1,1.1-1.9,1.07a9.85,9.85,0,0,1-3.25,0Z" transform="translate(-0.13 -14.28)"/>
    <path class="cls-2" d="M96.09,41.27c1.11-.52,2.36-2.2,3.1.36-.14.76-.08,1.84-1,1.88C96.79,43.56,96.72,42.08,96.09,41.27Z" transform="translate(-0.13 -14.28)"/>
    <path class="cls-3" d="M316.93,38.8A1.87,1.87,0,0,1,318,41c.07.65-.11,1.72-.6,1.53-1.09-.41-2.65-.66-2.53-2.44L315.94,39Z" transform="translate(-0.13 -14.28)"/>
    <path class="cls-3" d="M165.08,41c1.63-.1,1.63.69,1,1.82-1.55.64-2.54-.95-3.92-1l.75-2.73Z" transform="translate(-0.13 -14.28)"/>
    <path class="cls-3" d="M302.77,40.18l2.1-.75L308,41C305.87,43.13,304.31,41.71,302.77,40.18Z" transform="translate(-0.13 -14.28)"/>
    <path class="cls-2" d="M270.09,39c1.51-1.21,2,.55,2.89,1,.09,2-1.22,1.38-2.28,1.25l-1.7-.35C268.31,39.64,268.3,38.78,270.09,39Z" transform="translate(-0.13 -14.28)"/>
    <path class="cls-3" d="M277.93,38.76l2.19,1.4L278,43c-.39-1.26-.69-2.23-1-3.2Z" transform="translate(-0.13 -14.28)"/>
    <path class="cls-4" d="M432.85,41.9c.07-.94.14-1.88.2-2.82l2.62,1,.33,1.79Z" transform="translate(-0.13 -14.28)"/>
    <path class="cls-2" d="M67.18,42.87c.84-.87,1.31-2.35,3-1.78.72.38,1.41.76.78,1.74C69.71,43.31,68.47,45,67.18,42.87Z" transform="translate(-0.13 -14.28)"/>
    <path class="cls-3" d="M338.87,41c.86.9,3-.43,3.1,1.82C339.82,44.11,338.12,44.64,338.87,41Z" transform="translate(-0.13 -14.28)"/>
    <path class="cls-3" d="M483,44.72c-.37-.86-.75-1.73-1.13-2.59l.06-1.05a1.23,1.23,0,0,1,1.05-.44A2.84,2.84,0,0,1,484.88,42c0,.76.07,1.53.1,2.29A1.48,1.48,0,0,1,483,44.72Z" transform="translate(-0.13 -14.28)"/>
    <path class="cls-2" d="M111,41.77a.62.62,0,0,1,0-.78c2.19-1.44,2.25.95,3.18,1.77.06.8,0,1.48-1.12,1.18C111.81,43.83,111,43.21,111,41.77Z" transform="translate(-0.13 -14.28)"/>
    <path class="cls-3" d="M17,42l.14,1.82c-1.89.86-3,.28-3.13-1.8Z" transform="translate(-0.13 -14.28)"/>
    <path class="cls-3" d="M270.7,41.22c.89-.18,1.82-.29,2.28-1.25l3.12.11C274.45,41.14,273.12,43.79,270.7,41.22Z" transform="translate(-0.13 -14.28)"/>
    <path class="cls-4" d="M113.15,43.94l.88-1.25c-.26-.23-.33-.43-.22-.63s.2-.28.29-.28l2.05.28C115.81,43.73,116.23,46.63,113.15,43.94Z" transform="translate(-0.13 -14.28)"/>
    <path class="cls-3" d="M247,39.52,248,41l-6.11-.06C243.2,39,245.45,40.51,247,39.52Z" transform="translate(-0.13 -14.28)"/>
    <path class="cls-2" d="M150,41.05l1.13-1.25c1.5.46,1.1,2.16,2,3C151.54,43.26,150.11,43.36,150,41.05Z" transform="translate(-0.13 -14.28)"/>
    <path class="cls-3" d="M270.09,39A1.88,1.88,0,0,0,269,40.87l-1,0c.18-1.54-1.46-1.85-2-2.92C267.42,38,269,37.57,270.09,39Z" transform="translate(-0.13 -14.28)"/>
    <path class="cls-3" d="M71,42.83l-.78-1.74a2.58,2.58,0,0,1,2.93-.15,1.38,1.38,0,0,1,0,2Z" transform="translate(-0.13 -14.28)"/>
    <path class="cls-2" d="M145.76,42.06,149.22,41C148.73,43.55,147.76,44.51,145.76,42.06Z" transform="translate(-0.13 -14.28)"/>
    <path class="cls-2" d="M343,42.83c1.3-1.18,2.4-1.25,3.14.58C344.6,45.58,344,42.93,343,42.83Z" transform="translate(-0.13 -14.28)"/>
    <path class="cls-3" d="M73.13,42.92l0-2c.94-.45,1.78-1.19,3-.87l-2,2.9-.48,0Z" transform="translate(-0.13 -14.28)"/>
    <path class="cls-3" d="M45,42.87l2.15-2.09,2,.34A5.2,5.2,0,0,1,45,42.87Z" transform="translate(-0.13 -14.28)"/>
    <path class="cls-3" d="M89,42.08a2.48,2.48,0,0,1,3.25,0C91.15,42.92,90.07,44.46,89,42.08Z" transform="translate(-0.13 -14.28)"/>
    <path class="cls-2" d="M132,41.8c2-2.39.44,2.34,1.93,1C132.16,44.76,132.21,43,132,41.8Z" transform="translate(-0.13 -14.28)"/>
    <path class="cls-2" d="M473.87,40.9l0,1.14L474,42a.87.87,0,0,1-.95.12c0-.38-.07-.75-.1-1.13A1.14,1.14,0,0,1,473.87,40.9Z" transform="translate(-0.13 -14.28)"/>
    <path class="cls-4" d="M473,42.08A3.81,3.81,0,0,0,474,42l-.61.79Z" transform="translate(-0.13 -14.28)"/>
    <path class="cls-2" d="M410.91,25c-1.32,2.55-2.66,1.38-4,0-.62-1.49-2-.86-3-1-5.1,1.41-10.15,1.85-15-.88,1-1.38,2.5-1.35,4-1.42,2.25-1,4.31-2.78,7.06-1.66a11.59,11.59,0,0,1,4.49-.59c1.48-.06,2.86-1.66,4.43-.29a.92.92,0,0,0,1.07.84c2-.28,2.87.95,3.32,2.64C412.81,23.81,411.58,24.14,410.91,25Z" transform="translate(-0.13 -14.28)"/>
    <path class="cls-5" d="M224,21c-1.44,1,.8,1.64,0,2.76-1-.3-2.37-.32-3-1-3.63-4.23-6.6-3.22-9.41.83-.36.52-1.44,1.17-1.54.65-1-5.49-5.77-1.34-8.13-3.2a1.05,1.05,0,0,1,0-1.3c1.36-.41,2.56-1.5,4.14-.87L209,18c2.17-1.63,4.62-1.24,7.05-1a6.54,6.54,0,0,1,.89-.09c1.86-.38,3.37.88,5.1,1.11l1,.89C223.76,19.46,224.58,19.93,224,21Z" transform="translate(-0.13 -14.28)"/>
    <path class="cls-2" d="M49.27,21c-6.84,1.41-13.79,5.68-20.29-.85-.29-.24-.36-.44-.23-.61a.5.5,0,0,1,.36-.23c3.78,1.51,7.57.45,11.32.47,2.76,0,5.27.77,8-.75C49,18.7,49,20.27,49.27,21Z" transform="translate(-0.13 -14.28)"/>
    <path class="cls-2" d="M149,23c.23-.67,1.67-1,1-1.68-.49-.46-1.78-.09-2.72-.09-.3-.19-.43-.4-.38-.65s.12-.39.21-.39c2.54-.68,5.1-1.15,7.6,0,3.16,1.52,6.29-.68,9.43.07,2,.75,4.59-.9,6.32,1.33A1.39,1.39,0,0,1,170,23c-4.77-.73-9.48-.89-14,1.3-.15.07-.7-.24-.69-.34.52-5.95-2.61.84-3.26-.94A2.51,2.51,0,0,1,149,23Z" transform="translate(-0.13 -14.28)"/>
    <path class="cls-2" d="M364.94,22.06a4,4,0,0,1-4.76,1.25c-2.82-1-5.08-.62-4.48,4.31-2.16-2.61-3.56-4.53-5.71-5.56.1-3.07,2-2.67,4-2a2.4,2.4,0,0,0,3.73.22c1.56-1.41,2.77-1,4.21-.18C363,20.61,364.37,20.74,364.94,22.06Z" transform="translate(-0.13 -14.28)"/>
    <path class="cls-2" d="M180.06,20.79c3.31-.63,6.37-2.65,9.95-1.86,1-.31,1.76-1.55,3.07-.94l2.95.19a1.73,1.73,0,0,1,.34,1.16c-.34,1.36,1,3-.6,4.14-2.26.05-4.48.45-6.72.52v0c-1.48-1.34-2.94-2.72-5-1h0a3.65,3.65,0,0,1-4.14-.83A1.31,1.31,0,0,1,180.06,20.79Z" transform="translate(-0.13 -14.28)"/>
    <path class="cls-4" d="M334,20.24c-.45,1.55-3,.58-3.11,3.62,0,2.47-2.5-.6-4-.83-1.6-1.11-4-.25-5.26-2.22.33-1.38,1.23-1.4,2.32-.95l9.93-.6c.37.19.51.4.41.63S334.14,20.24,334,20.24Z" transform="translate(-0.13 -14.28)"/>
    <path class="cls-4" d="M252,20.13c-3.68.12-7.36,2-11-.07a1.36,1.36,0,0,1-.38-1.67l.46-.43L251,18A2.38,2.38,0,0,1,252,20.13Z" transform="translate(-0.13 -14.28)"/>
    <path class="cls-4" d="M234,20.06a6.36,6.36,0,0,0-4,1c-1.73.67-2.22-.89-3.12-1.71a1.28,1.28,0,0,1,.1-1.24,4.63,4.63,0,0,0,.9-.12c2.21-1.27,5.29.76,7.14-1.87l6,1.84-.24.36C239,20.79,236.78,21.45,234,20.06Z" transform="translate(-0.13 -14.28)"/>
    <path class="cls-3" d="M170.05,22.06c-1.54-2.08-4.29-.06-5.94-1.75,4.64-.43,9.3-1.42,13.89.35l.36.6c-.64,2.81-2.15,3.88-4.78,2.18A15.58,15.58,0,0,0,170.05,22.06Z" transform="translate(-0.13 -14.28)"/>
    <path class="cls-2" d="M458.88,21c-2.49-1.11-4.75-1.81-7,.8-1.74,2-3.42.12-5-.87-.34-.21-.46-.41-.34-.62s.22-.31.34-.31l-.14-.19c.55-.78,1.15-1.43,2.24-1h1.8c1.64-1.38,3.54-.2,5.29-.55,1,.44,2.95-.81,2.88,1.59C459.47,20.26,459.44,20.67,458.88,21Z" transform="translate(-0.13 -14.28)"/>
    <path class="cls-3" d="M354,20c-1.55.25-3.32.07-4,2-2.61-.88-5.47.24-8-1a.6.6,0,0,1-.22-.64c.07-.22.14-.33.22-.33C346,17.72,350,18.64,354,20Z" transform="translate(-0.13 -14.28)"/>
    <path class="cls-3" d="M429,20.89c-3.45,3.3-7.49.36-11.19,1.07-.19-.75.16-1.08.87-1.14C422.17,19.76,425.62,17.84,429,20.89Z" transform="translate(-0.13 -14.28)"/>
    <path class="cls-4" d="M418.72,20.82,417.85,22l-1.94,1.11A2.26,2.26,0,0,1,413,23a6.37,6.37,0,0,0-3.06-3A68.21,68.21,0,0,0,417.09,19C419.26,18.44,418.49,20,418.72,20.82Z" transform="translate(-0.13 -14.28)"/>
    <path class="cls-3" d="M270.91,19.94l-.46.08L270,20a1.27,1.27,0,0,1-.12-1.82,45.1,45.1,0,0,1,17.27,2c-4,.85-8,0-12-.28A16.78,16.78,0,0,0,270.91,19.94Z" transform="translate(-0.13 -14.28)"/>
    <path class="cls-4" d="M195.75,19.2l.28-1a2.7,2.7,0,0,1,2.49-1.71c1.77,2.49,3.38,1.62,5.48.36,1-.61,1.28,1.49,2.18,2.05A5.5,5.5,0,0,1,202,20.13a5.63,5.63,0,0,1-4.73.81A2.2,2.2,0,0,1,195.75,19.2Z" transform="translate(-0.13 -14.28)"/>
    <path class="cls-4" d="M321.76,20.91c1.71.75,4.52-1.16,5.2,2.12l-4,1.1a2.48,2.48,0,0,0-2,0,2.74,2.74,0,0,1-3-.09,2.13,2.13,0,0,1,.06-2.86l3-1.09A1.24,1.24,0,0,1,321.76,20.91Z" transform="translate(-0.13 -14.28)"/>
    <path class="cls-2" d="M446.89,20V21l-1,.23c-1.54,1.14-3.38.39-5,.81a3.35,3.35,0,0,1-3.94.13,1.22,1.22,0,0,1-1.26.18,2.11,2.11,0,0,1-1.06-1.66c.26-.73.64-1.21,1.49-.74,1.56-.77,3.5,1,4.91-.75a2.06,2.06,0,0,1,2.94-.17Z" transform="translate(-0.13 -14.28)"/>
    <path class="cls-3" d="M366.94,22.08l-1.22-.22c-.58-.37-1-.81-.72-1.58,2.93-.69,6.11.47,8.91-1.19.84.69,2,.9,2.7,1.83.48.77,1,1.55.21,2.43a1.76,1.76,0,0,1-1.9-.25l-2-.16C371,22.62,369,22.25,366.94,22.08Z" transform="translate(-0.13 -14.28)"/>
    <path class="cls-2" d="M488.88,19c-.84,2.36-3.4,1.87-5,3-1.09-.75-.59-1.89-.73-2.88.81-3.68,4.12-.51,5.7-2.07A1.33,1.33,0,0,1,488.88,19Z" transform="translate(-0.13 -14.28)"/>
    <path class="cls-2" d="M108.35,20.37c-3.82.53-7.68,1.93-11.33-.58C100.77,20.52,104.75,16.78,108.35,20.37Z" transform="translate(-0.13 -14.28)"/>
    <path class="cls-3" d="M318,21.15,317.94,24c-1-.31-1.82-1.23-3-.11-1.92,1.81-3,.28-4-1.25C312.64,19.2,316,23.28,318,21.15Z" transform="translate(-0.13 -14.28)"/>
    <path class="cls-3" d="M342,20.08c0,.33,0,.65,0,1-2.89,2.12-5.29-.4-7.92-.81,0-.32-.07-.65-.08-1C336.62,19.47,339.44,18.22,342,20.08Z" transform="translate(-0.13 -14.28)"/>
    <path class="cls-3" d="M222,18.05c-2.13,1.63-3.75.88-5.1-1.11.59-1.75,1.87-3,3.66-2.58S220.63,17.13,222,18.05Z" transform="translate(-0.13 -14.28)"/>
    <path class="cls-4" d="M227,18.11a6.37,6.37,0,0,1,.08,1,2.9,2.9,0,0,1-.24,1.16,2.23,2.23,0,0,1-.82.85L224,21c-.32-.7-.65-1.4-1-2.09,1.9-.35-.48-3.58,2.23-3.32C226.74,15.76,227,16.9,227,18.11Z" transform="translate(-0.13 -14.28)"/>
    <path class="cls-4" d="M458.88,21l.08-1.2a3.49,3.49,0,0,1,.72.05c.76-.28,1.14-1.5,2.25-.87a2.28,2.28,0,0,0,2.65-.86c1.78-2.83,2.25-1.09,2.73.73A11.78,11.78,0,0,1,458.88,21Z" transform="translate(-0.13 -14.28)"/>
    <path class="cls-3" d="M29.11,19.28a8.13,8.13,0,0,1-.13.84,26,26,0,0,1-11.82-.85C21.14,17.73,25.12,19.11,29.11,19.28Z" transform="translate(-0.13 -14.28)"/>
    <path class="cls-3" d="M216,17c-2.22,1.26-4.44,2.54-7.05,1C210.82,14.14,213.49,16.08,216,17Z" transform="translate(-0.13 -14.28)"/>
    <path class="cls-2" d="M483.17,19.14c.9.79.67,1.87.73,2.88-2.21-1.26-4.94,1.16-7-1-.52-1.63.75-2,1.78-2.52A2.5,2.5,0,0,1,481,19.86C482,20.42,482.63,19.91,483.17,19.14Z" transform="translate(-0.13 -14.28)"/>
    <path class="cls-2" d="M235,16.12c0,1.66.24,3.4-2.44,2.71-1.54-.39-3.13-.57-4.7-.84C229.94,16.07,232.73,17,235,16.12Z" transform="translate(-0.13 -14.28)"/>
    <path class="cls-2" d="M91.09,21.27c-3.17,1.44-6.28,1.65-9.29-.42C85,18.6,88,21.53,91.09,21.27Z" transform="translate(-0.13 -14.28)"/>
    <path class="cls-3" d="M392.86,21.74c-.72,2.16-2.65.94-4,1.42l-2-.1a1.22,1.22,0,0,1-.23-1.09,8.62,8.62,0,0,1,2.24-1.88C390.5,20,392.68,18.51,392.86,21.74Z" transform="translate(-0.13 -14.28)"/>
    <path class="cls-3" d="M471.88,21.05c-1.11.86-2.05,2.73-3.58,1.77-.66-.41-.31-2.43-.42-3.72l3,0C471.64,19.51,472.47,19.93,471.88,21.05Z" transform="translate(-0.13 -14.28)"/>
    <path class="cls-2" d="M388.93,20.09c0,1.39-.88,1.85-2.05,2-1.17.86-2.09.32-2.95-.53-.63-.85-.24-1.67.1-2.49C386.12,17.14,387.05,21,388.93,20.09Z" transform="translate(-0.13 -14.28)"/>
    <path class="cls-2" d="M434.9,21l1,.94a6.37,6.37,0,0,1-5,2c.17-1.54-1.56-1.91-1.91-3.13.88-.32,1.49-1.32,2.61-1A2.44,2.44,0,0,1,434.9,21Z" transform="translate(-0.13 -14.28)"/>
    <path class="cls-2" d="M490.87,17.22l5.91,1a1,1,0,0,1,.29.8c0,.29-.1.43-.16.43-2.27,3.07-4.3,1.58-6.3-.34A1.52,1.52,0,0,1,490.87,17.22Z" transform="translate(-0.13 -14.28)"/>
    <path class="cls-4" d="M471.88,21.05c-.33-.66-.66-1.33-1-2,1.6-1.95,3.44,0,5.14-.31a1.89,1.89,0,0,1-.1,2.26Z" transform="translate(-0.13 -14.28)"/>
    <path class="cls-3" d="M456.08,18.24c-1.61,1.66-3.51.53-5.29.55C452.14,14.6,454.1,16.31,456.08,18.24Z" transform="translate(-0.13 -14.28)"/>
    <path class="cls-3" d="M269.87,18.16,270,20a5.63,5.63,0,0,1-6-1Z" transform="translate(-0.13 -14.28)"/>
    <path class="cls-4" d="M481,19.86,478.92,19a1.88,1.88,0,0,1-1-.93c.17-1.22.65-2.45,2.07-1.79A2.3,2.3,0,0,1,481,19.86Z" transform="translate(-0.13 -14.28)"/>
    <path class="cls-2" d="M377,22.93l-1.09-1.79a2.32,2.32,0,0,1,1.09-2c.94-1,1.92-.52,2.91-.11a2.31,2.31,0,0,1-.05,2.33,4.48,4.48,0,0,1-.66,1.06C378.53,23,377.89,23.55,377,22.93Z" transform="translate(-0.13 -14.28)"/>
    <path class="cls-2" d="M134.08,19.94c-2,.28-3.94,2.31-6,.23C130,18.4,132,18.43,134.08,19.94Z" transform="translate(-0.13 -14.28)"/>
    <path class="cls-3" d="M180.06,20.79,180,22c-.92.47-1.52,0-2-.69a1.2,1.2,0,0,1,0-.65c.39-1.07-.5-3.12,1.12-3.05S180.32,19.52,180.06,20.79Z" transform="translate(-0.13 -14.28)"/>
    <path class="cls-3" d="M96.13,20c-1.53-.43-1.88,4.09-4.06,1C93.12,19.38,94.27,18.22,96.13,20Z" transform="translate(-0.13 -14.28)"/>
    <path class="cls-3" d="M147.08,20.19c0,.35.11.69.17,1-2.05,2.24-3.24,1-4.23-1Z" transform="translate(-0.13 -14.28)"/>
    <path class="cls-3" d="M365,20.28l.72,1.58a1.62,1.62,0,0,0-.78.2c-1.09-.53-2.66-.35-3-2C363,19.88,364.11,18.27,365,20.28Z" transform="translate(-0.13 -14.28)"/>
    <path class="cls-2" d="M490.87,17.22c0,.61,0,1.22,0,1.84a.6.6,0,0,1-1,.11l-1-.15c0-.65,0-1.3,0-1.95.36-1.06,1-2.19,2.19-1.74C492.11,15.72,490.72,16.54,490.87,17.22Z" transform="translate(-0.13 -14.28)"/>
    <path class="cls-3" d="M408.84,19.2l-4.83.64c-.3-.25-.39-.47-.25-.66a.51.51,0,0,1,.38-.26C405.81,17.21,407.38,17.38,408.84,19.2Z" transform="translate(-0.13 -14.28)"/>
    <path class="cls-3" d="M503.86,19.24c-1.39,1.15-2.74,1.34-4-.2-.29-.22-.38-.41-.26-.59s.22-.26.33-.26l2.94-.13C504,17.84,504.29,18.22,503.86,19.24Z" transform="translate(-0.13 -14.28)"/>
    <path class="cls-3" d="M449,18.8l-2.24,1c-.11-.85-1.31-1.86,0-2.5S449,17.22,449,18.8Z" transform="translate(-0.13 -14.28)"/>
    <path class="cls-3" d="M252,20.13A2.48,2.48,0,0,1,251,18c1.41.17,3.06-.69,4.14.93Z" transform="translate(-0.13 -14.28)"/>
    <path class="cls-2" d="M378.94,21c.31-.65.63-1.29.95-1.94l1.94,1c1,.44,1.79,1,1.1,2.25A3.36,3.36,0,0,1,378.94,21Z" transform="translate(-0.13 -14.28)"/>
    <path class="cls-3" d="M499.94,18.19a2,2,0,0,0-.07.85l-1.08.84c-1.21,1.07-1.84.54-2.19-.78a3.43,3.43,0,0,0,.18-.89C497.83,17,498.88,17.32,499.94,18.19Z" transform="translate(-0.13 -14.28)"/>
    <path class="cls-3" d="M193.08,18c-1,.43-1.56,2.2-3.07.94C190.35,16.41,191.61,16.86,193.08,18Z" transform="translate(-0.13 -14.28)"/>
    <path class="cls-3" d="M404.14,18.92a4.08,4.08,0,0,0-.13.92c-1.39-.42-2.66,1.25-4.09.24C401.23,19.33,402.37,18,404.14,18.92Z" transform="translate(-0.13 -14.28)"/>
    <path class="cls-3" d="M382.82,21.93l-1-1.91c.51-.84,1.39-.79,2.2-.91.83.71,0,1.33-.1,2C384,22,383.74,22.39,382.82,21.93Z" transform="translate(-0.13 -14.28)"/>
    <path class="cls-2" d="M377,19.17a2,2,0,0,1-1.09,2l-2-2.05Z" transform="translate(-0.13 -14.28)"/>
    <path class="cls-3" d="M443.94,19l-2.94.17a1.89,1.89,0,0,1,1.78-1.77C443.88,17.28,443.76,18.3,443.94,19Z" transform="translate(-0.13 -14.28)"/>
    <path class="cls-3" d="M434.9,21l-3.29-1.2c1.51-1.1,3-.71,4.48.07Z" transform="translate(-0.13 -14.28)"/>
    <path class="cls-3" d="M321.76,20.91l-.8-.85c1-.87,1.88-2.53,3.06-.2Z" transform="translate(-0.13 -14.28)"/>
    <path class="cls-2" d="M503.86,19.24l-1-1.18c1-1.19,2-1.25,3-.07C505.55,19,504.64,19,503.86,19.24Z" transform="translate(-0.13 -14.28)"/>
    <path class="cls-3" d="M477.91,18.09l1,.93-2,2h-.48l-.48,0c0-.75.07-1.51.1-2.26Z" transform="translate(-0.13 -14.28)"/>
    <path class="cls-3" d="M461.93,19l-2.25.87c.19-1,.39-2,.58-3C460.82,17.6,461.38,18.3,461.93,19Z" transform="translate(-0.13 -14.28)"/>
    <path class="cls-2" d="M226.85,39.83c-4.6,1.06-9.23-1.28-13.83.13-2.26.84-4-.17-5.76-1.46l-.33-.62c6.58-1.63,13.29-1,19.95-1.08l.26.35C227.67,38.11,227.93,39,226.85,39.83Z" transform="translate(-0.13 -14.28)"/>
    <path class="cls-2" d="M375.93,40.94l-21,.83a2.94,2.94,0,0,1,2-2.8c1,0,2,1,3,0,3.38,1.07,6.58.21,9.63-1.14,2.49-1.1,4.66-1.6,6.37,1.12A2.55,2.55,0,0,1,375.93,40.94Z" transform="translate(-0.13 -14.28)"/>
    <path class="cls-5" d="M178,21.31l2,.69,4,1c0,.34,0,.68,0,1-.59,1-1.35,2-2,3-1.28-.51-1.53-3.42-3.22-2.22-3.82,2.7-6-.71-8.8-1.78q0-.48,0-1c1.19-.6,2.38-1.25,3.51.1C175.55,24.53,176.82,23.22,178,21.31Z" transform="translate(-0.13 -14.28)"/>
    <path class="cls-4" d="M190,42.08l-1.1-1.89c-.33-1.37.51-1.8,1.55-1.53,1.84.5,3.75.66,5.57,1.22l5-1c1.75-.23,3.94-1.39,4,1.91-2.06-.69-3.62,1.5-5.65,1a11.28,11.28,0,0,0-6.46.1Z" transform="translate(-0.13 -14.28)"/>
    <path class="cls-5" d="M189.05,24c2-3,4.53-1.55,7-.95a1.18,1.18,0,0,1,1,1C194.37,24.65,191.67,29.88,189.05,24Z" transform="translate(-0.13 -14.28)"/>
    <path class="cls-2" d="M366.94,22.08c2.28-1.65,4.32-1.56,6,.86C369.39,27.08,369.23,27.05,366.94,22.08Z" transform="translate(-0.13 -14.28)"/>
    <path class="cls-2" d="M496.6,19.1a2,2,0,0,0,2.19.78c-2.46,4.14-6.25,3.84-8.91-.71l1-.11C492.79,19.67,494.69,20.83,496.6,19.1Z" transform="translate(-0.13 -14.28)"/>
    <path class="cls-5" d="M382.82,21.93l1.11-.83,2.95,1c0,.31,0,.62,0,.93-2.29,3.07-2.25,3-4.78.53-.75-.73-1.47.29-2.21.44a2.08,2.08,0,0,1-1-2c0-.35,0-.7,0-1.05C380.42,20.52,381.27,22.67,382.82,21.93Z" transform="translate(-0.13 -14.28)"/>
    <path class="cls-4" d="M509.87,41l-2.1,1.86c-2-1.59-6.19,1.85-6.87-2.9C503.9,40.21,507,39.28,509.87,41Z" transform="translate(-0.13 -14.28)"/>
    <path class="cls-4" d="M419.8,41c-1.1-2.92-3-1.85-4.89-1a2.08,2.08,0,0,0-1-2c2.31-3.11,4.64-2.17,7,0C420.86,39.06,421.12,40.28,419.8,41Z" transform="translate(-0.13 -14.28)"/>
    <path class="cls-4" d="M196.06,39.88c-2.33,1-4.83-1.68-7.12.31-1.11-.07-2.34-.57-3.12.76a4.92,4.92,0,0,1-.86-.09c-.11-3,1.94-2.9,4-2.9A11.79,11.79,0,0,1,196.06,39.88Z" transform="translate(-0.13 -14.28)"/>
    <path class="cls-6" d="M379,22.05a2,2,0,0,1,1,2c-.43.66.17,3.37-1.24,1.73-2.5-2.9-2.6.46-3.75.92-1.54-1.27.35-2.42,0-3.58l2.06-.17Z" transform="translate(-0.13 -14.28)"/>
    <path class="cls-2" d="M246,38.62l-7.08.19C241.14,33.21,243.59,36.57,246,38.62Z" transform="translate(-0.13 -14.28)"/>
    <path class="cls-2" d="M484.88,42a2.22,2.22,0,0,1-2-1.13c-.84-2.22,0-2.66,2-1.92,1.67.3,3.61-.71,5,1-.44.8-1.38.47-2,.87Z" transform="translate(-0.13 -14.28)"/>
    <path class="cls-3" d="M205,40.83c-.57-2.22-2.82-.93-4-1.91,1.7-1.84,3.63-2.38,5.9-1a4.78,4.78,0,0,0,.39.39,1.92,1.92,0,0,1-.38,2.65Z" transform="translate(-0.13 -14.28)"/>
    <path class="cls-4" d="M234,20.06c2.53.4,4.62-.89,6.83-1.74,0,.58.11,1.16.16,1.74C238.66,22.23,236.33,23.81,234,20.06Z" transform="translate(-0.13 -14.28)"/>
    <path class="cls-4" d="M484.9,39c-1.23.06-2,.61-2,1.92l-1,.2c-1.09-.15-2.34.16-3-1.06-.33-.25-.44-.48-.32-.71s.24-.34.35-.34C480.89,39.43,482.89,35.08,484.9,39Z" transform="translate(-0.13 -14.28)"/>
    <path class="cls-3" d="M430.91,24a5.17,5.17,0,0,1,5-2l1,.15C435.62,25,433.73,26,430.91,24Z" transform="translate(-0.13 -14.28)"/>
    <path class="cls-6" d="M184,23c2.28-2.68,4.25-3.83,5,1Z" transform="translate(-0.13 -14.28)"/>
    <path class="cls-4" d="M197.08,20.28l4.94-.15v.92c-1,.6-1.43,2.14-3,2C198.06,22.36,195.65,22.69,197.08,20.28Z" transform="translate(-0.13 -14.28)"/>
    <path class="cls-2" d="M388.06,40.32a.43.43,0,0,1-.32.64c-2.16.66-4.37,1.46-4.81-2C385.09,37.73,386.77,38.3,388.06,40.32Z" transform="translate(-0.13 -14.28)"/>
    <path class="cls-3" d="M375.93,40.94c-.32-.67-1.06-1.33,0-2l3.9.08c.57,1.13-.06,1.68-1,2.07C377.87,41,376.79,42.9,375.93,40.94Z" transform="translate(-0.13 -14.28)"/>
    <path class="cls-3" d="M197.08,20.28c-.14,1.48,1.48,1.72,2,2.76l-2,1-1-1c.92-1.36-3.24-2.35-.28-3.85Z" transform="translate(-0.13 -14.28)"/>
    <path class="cls-4" d="M403.88,38.9c2.06,1.86-.79,2.07-1.06,3.14l-1-.22a1.77,1.77,0,0,1-.9-.85C401,39,402.33,38.79,403.88,38.9Z" transform="translate(-0.13 -14.28)"/>
    <path class="cls-3" d="M382.93,39c.95,2.25,2.93,2,4.81,2-2.16,1.15-4.28,2.07-5.86-.83-.51-.4-.49-.79.05-1.16Z" transform="translate(-0.13 -14.28)"/>
    <path class="cls-3" d="M478.88,39l0,1.05-5,.52C474.93,38,476.57,37.43,478.88,39Z" transform="translate(-0.13 -14.28)"/>
    <path class="cls-6" d="M90.51,35.84c.07.95-.68,1-1.3,1s-1.41,0-1.56-.77c-.21-.94.65-1,1.26-1A1.36,1.36,0,0,1,90.51,35.84Z" transform="translate(-0.13 -14.28)"/>
    <path class="cls-3" d="M413,23l2.94.05c-1,2.4-3.38,1.19-5,2A1.86,1.86,0,0,1,413,23Z" transform="translate(-0.13 -14.28)"/>
    <path class="cls-2" d="M440.86,22c1.49-1.48,3.31-.85,5-.81C444.57,23.58,442.77,23.14,440.86,22Z" transform="translate(-0.13 -14.28)"/>
    <path class="cls-3" d="M403.89,24a2.33,2.33,0,0,1,3.4-.54c.6.42.2,1.13-.38,1.55C405.81,25,404.62,25.19,403.89,24Z" transform="translate(-0.13 -14.28)"/>
    <path class="cls-3" d="M400.89,41l.9.85c-2.32,1-3.47-2.29-5.72-1.54C398.19,36.93,399.39,40,400.89,41Z" transform="translate(-0.13 -14.28)"/>
    <path class="cls-3" d="M487.9,40.84l2-.87c.65-.1,1.27-1.1,2-.08a2,2,0,0,1-2.05,2.19Z" transform="translate(-0.13 -14.28)"/>
    <path class="cls-7" d="M226,21.1l.12-1c2.31-1.3,2.24.86,2.88,2C227.44,23.57,226.43,23.28,226,21.1Z" transform="translate(-0.13 -14.28)"/>
    <path class="cls-4" d="M327,40c-.37.31-.73.63-1.09.95L324,39c0-.34,0-.68,0-1C327.09,35.48,325.72,39.7,327,40Z" transform="translate(-0.13 -14.28)"/>
    <path class="cls-2" d="M359.94,39c-1,3.16-2,1.56-3,0C357.94,37.41,358.94,38.72,359.94,39Z" transform="translate(-0.13 -14.28)"/>
    <path class="cls-2" d="M500.88,39.94a11.43,11.43,0,0,0-6.07,1C496.35,37.56,498.64,38.89,500.88,39.94Z" transform="translate(-0.13 -14.28)"/>
    <path class="cls-6" d="M215,22.59c1.8.43,2.53,1.17,2.62,2.38,0,.18-.64.42-1,.63Z" transform="translate(-0.13 -14.28)"/>
    <path class="cls-6" d="M182,27a3,3,0,0,1,2-3C187.09,27.5,183.14,26.31,182,27Z" transform="translate(-0.13 -14.28)"/>
    <path class="cls-3" d="M440.9,37.9l-3,1.08-1-1C438.18,35.62,439.52,35.59,440.9,37.9Z" transform="translate(-0.13 -14.28)"/>
    <path class="cls-2" d="M270.91,19.94c1.37-1.39,2.78-1.11,4.19-.07C273.72,20.9,272.32,21.11,270.91,19.94Z" transform="translate(-0.13 -14.28)"/>
    <path class="cls-3" d="M114.1,41.78a5.58,5.58,0,0,0-.07.91c-.88-.74-1.51-1.92-2.94-1.7,1.29-1.49,2.59-1.66,3.9,0Z" transform="translate(-0.13 -14.28)"/>
    <path class="cls-3" d="M229,22c-1-.55-1.37-2.12-2.88-2l.94-1c1.53-.17,1.91,1.39,2.94,2Z" transform="translate(-0.13 -14.28)"/>
    <path class="cls-4" d="M381.93,39c0,.39,0,.78-.05,1.16-1,.39-1.2,3.26-3.05,1l1-2.07Z" transform="translate(-0.13 -14.28)"/>
    <path class="cls-3" d="M321,24.1c.26-.54.45-1.47.8-1.54,1.13-.22,1.06.83,1.23,1.57C322.29,25,321.61,25.06,321,24.1Z" transform="translate(-0.13 -14.28)"/>
    <path class="cls-3" d="M149,23l3.11,0a2.35,2.35,0,0,1-2.8,1.38C148.59,24.29,148.18,23.67,149,23Z" transform="translate(-0.13 -14.28)"/>
    <path class="cls-4" d="M206.94,40.92c.12-.89.25-1.77.38-2.65L213,40C211.22,41.71,209,40.67,206.94,40.92Z" transform="translate(-0.13 -14.28)"/>
    <path class="cls-3" d="M226.85,39.83c.1-.9.2-1.79.29-2.68l4,2.67C229.7,41.35,228.28,40.08,226.85,39.83Z" transform="translate(-0.13 -14.28)"/>
    <path class="cls-3" d="M192.91,41.91c2.13-1.3,4.28-1.6,6.46-.1Z" transform="translate(-0.13 -14.28)"/>
  </g>
</svg>
